<svg width="25" height="27" viewBox="0 0 25 27" fill="none" xmlns="http://www.w3.org/2000/svg">
<path d="M25 25.4372L1.25893 0.000342544L0 1.34919L5.71429 7.48121L4.46429 13.1732C4.43278 13.3158 4.43227 13.4642 4.46279 13.6071C4.49332 13.7499 4.55407 13.8833 4.64034 13.997C4.72662 14.1107 4.83612 14.2017 4.96041 14.2628C5.08469 14.324 5.22042 14.3538 5.35714 14.3498H9.66964L8.03571 25.6859C8.00622 25.8961 8.04287 26.1107 8.13987 26.2961C8.23687 26.4814 8.38871 26.6269 8.57143 26.7095C8.68492 26.7589 8.80609 26.7849 8.92857 26.7861C9.06493 26.7857 9.1994 26.7519 9.32166 26.6872C9.44393 26.6226 9.55075 26.5287 9.63393 26.413L15.5982 18.0616L23.7411 26.7861L25 25.4372Z" fill="white"/>
<path d="M18.3304 14.2255L21.2411 10.1502C21.3349 10.0143 21.3934 9.85414 21.4107 9.6861C21.4279 9.51805 21.4033 9.34811 21.3393 9.19358C21.2722 9.02363 21.1606 8.87812 21.018 8.77458C20.8755 8.67104 20.708 8.61389 20.5358 8.61004H16.2947L17.8572 1.16743C17.8868 1.02625 17.8861 0.879724 17.8551 0.738878C17.8242 0.598032 17.7638 0.466539 17.6786 0.354296C17.5927 0.240751 17.4837 0.149809 17.3598 0.0884518C17.236 0.0270941 17.1007 -0.00304724 16.9643 0.000341912H8.03576C7.83059 -0.00553504 7.6298 0.0645025 7.46718 0.198665C7.30456 0.332827 7.19004 0.522922 7.14291 0.736949L6.87505 1.98057L18.3304 14.2255Z" fill="white"/>
</svg>
