<svg width="18" height="25" viewBox="0 0 18 25" fill="none" xmlns="http://www.w3.org/2000/svg">
<path d="M4.37004 24.9286C4.17717 24.8515 4.0169 24.7157 3.91451 24.5427C3.81211 24.3697 3.77343 24.1694 3.80457 23.9732L5.51982 13.393H0.967796C0.823483 13.3967 0.680207 13.3689 0.549023 13.3118C0.417839 13.2547 0.302253 13.1698 0.211183 13.0637C0.120113 12.9576 0.0559943 12.8331 0.0237734 12.6998C-0.00844752 12.5664 -0.00790897 12.4279 0.0253472 12.2948L2.85269 0.68781C2.90244 0.488054 3.02332 0.310635 3.19497 0.185418C3.36663 0.0602016 3.57858 -0.00516597 3.79514 0.000319114H13.2196C13.3604 -0.000134427 13.4995 0.0293042 13.6268 0.0864719C13.754 0.14364 13.866 0.227083 13.9547 0.330672C14.0447 0.435431 14.1084 0.558157 14.141 0.689611C14.1737 0.821065 14.1744 0.957823 14.1432 1.08959L12.5128 8.03593H16.9894C17.1661 8.0356 17.3392 8.0823 17.4892 8.1707C17.6392 8.2591 17.7599 8.38566 17.8376 8.53593C17.9052 8.68016 17.9311 8.83876 17.9129 8.9956C17.8947 9.15244 17.833 9.3019 17.734 9.42877L5.48212 24.6072C5.39932 24.7234 5.28876 24.8196 5.15941 24.8879C5.03005 24.9561 4.88554 24.9945 4.73759 25C4.61148 24.9978 4.48689 24.9736 4.37004 24.9286Z" fill="white"/>
</svg>
