<svg width="43" height="43" viewBox="0 0 43 43" fill="none" xmlns="http://www.w3.org/2000/svg">
<path d="M24.9284 7.49889C24.9337 6.50722 24.5361 5.554 23.823 4.84892C23.1099 4.14384 22.1397 3.74466 21.1258 3.7392C19.0042 3.72777 17.2941 5.4012 17.283 7.4577C17.2718 9.5329 18.964 11.206 21.0856 11.2174C22.0994 11.2229 23.0738 10.8342 23.7945 10.1368C24.5152 9.43944 24.923 8.49056 24.9284 7.49889ZM13.4603 7.43711C13.471 5.45377 14.2867 3.556 15.7281 2.1613C17.1694 0.766587 19.1183 -0.0108152 21.146 0.000108293C23.1737 0.0110318 25.1141 0.809386 26.5403 2.21954C27.9665 3.6297 28.7618 5.53614 28.7511 7.51948C28.7404 9.50282 27.9247 11.4006 26.4833 12.7953C25.042 14.19 23.1908 15.1382 21.1631 15.1272C19.1354 15.1163 17.0973 14.1472 15.6711 12.7371C14.2449 11.3269 13.4496 9.42045 13.4603 7.43711ZM32.5738 7.54008C32.5783 6.69878 32.4872 5.87567 32.3194 5.08953C38.2059 8.74827 42.0894 15.2193 42.0499 22.5479C41.9887 33.9148 32.5353 43.0623 20.9143 42.9997C9.29334 42.9371 -0.0609368 33.6883 0.000298194 22.3214C0.0397787 14.9928 3.99279 8.56396 9.91839 4.96885C9.74214 5.75313 9.64214 6.57522 9.63761 7.41652C9.62955 8.91215 9.92772 10.3347 10.4559 11.6275C7.5551 14.3415 5.7571 18.1271 5.73434 22.3523C5.71297 26.319 7.30346 30.1319 10.1559 32.9522C13.0084 35.7725 16.8892 37.3692 20.9446 37.391C24.9999 37.4129 28.8977 35.8581 31.7804 33.0687C34.6631 30.2793 36.2945 26.4837 36.3159 22.517C36.3387 18.2919 34.5816 14.4871 31.7101 11.742C32.2523 10.4549 32.5657 9.03571 32.5738 7.54008Z" fill="#085B10" fill-opacity="0.9"/>
<path d="M25.1285 7.49997C25.1341 6.45379 24.7146 5.4491 23.9637 4.70665C23.2129 3.96436 22.1924 3.54488 21.1269 3.53914C18.8984 3.52713 17.0946 5.28613 17.0829 7.45663C17.0711 9.64646 18.8566 11.4055 21.0845 11.4175C22.15 11.4232 23.1749 11.0147 23.9336 10.2806C24.6925 9.54626 25.1228 8.54614 25.1285 7.49997ZM13.6604 7.43819C13.6708 5.50935 14.464 3.66282 15.8672 2.30507C17.2705 0.947172 19.1689 0.189526 21.1449 0.200171C23.1209 0.210816 25.011 0.988872 26.3996 2.36181C27.7881 3.7346 28.5614 5.58957 28.551 7.51841C28.5406 9.44724 27.7473 11.2938 26.3442 12.6515C24.9301 14.0199 23.1268 14.9377 21.1642 14.9272C19.1963 14.9166 17.2065 13.9738 15.8118 12.5948C14.4233 11.222 13.65 9.36702 13.6604 7.43819ZM32.7738 7.54115C32.7776 6.84764 32.7175 6.16654 32.6038 5.50796C38.2154 9.17196 41.8881 15.4546 41.8499 22.5469C41.7893 33.7991 32.4301 42.8617 20.9154 42.7996C9.40072 42.7376 0.139744 33.5747 0.200362 22.3225C0.238569 15.2303 3.97877 8.98752 9.62946 5.38419C9.50875 6.0415 9.44128 6.72192 9.43755 7.41544C9.4296 8.8895 9.71378 10.2937 10.2195 11.5756C7.33926 14.3182 5.55709 18.1168 5.53428 22.3512C5.51262 26.3724 7.12501 30.2368 10.0153 33.0944C12.9054 35.952 16.8365 37.569 20.9435 37.5911C25.0505 37.6132 28.9988 36.0387 31.9195 33.2124C34.8404 30.3861 36.4943 26.5393 36.516 22.5181C36.5388 18.2837 34.7976 14.4661 31.9471 11.6926C32.4666 10.4163 32.7659 9.01522 32.7738 7.54115Z" stroke="black" stroke-opacity="0.8" stroke-width="0.4"/>
</svg>
