<svg width="42" height="41" viewBox="0 0 42 41" fill="none" xmlns="http://www.w3.org/2000/svg">
<path d="M21.228 21.9054C21.095 21.8869 20.924 21.8869 20.772 21.9054C17.428 21.7946 14.7679 19.1356 14.7679 15.8673C14.7679 12.5251 17.542 9.8107 21 9.8107C24.439 9.8107 27.232 12.5251 27.232 15.8673C27.213 19.1356 24.572 21.7946 21.228 21.9054Z" stroke="#292D32" stroke-opacity="0.95" stroke-width="4" stroke-linecap="round" stroke-linejoin="round"/>
<path d="M33.806 34.0925C30.424 37.1023 25.94 38.9304 21 38.9304C16.06 38.9304 11.576 37.1023 8.19402 34.0925C8.38402 32.3568 9.52402 30.658 11.557 29.3285C16.763 25.9679 25.275 25.9679 30.443 29.3285C32.476 30.658 33.616 32.3568 33.806 34.0925Z" stroke="#292D32" stroke-opacity="0.95" stroke-width="4" stroke-linecap="round" stroke-linejoin="round"/>
<path d="M21 38.9302C31.4933 38.9302 40 30.663 40 20.4651C40 10.2671 31.4933 2 21 2C10.5066 2 2 10.2671 2 20.4651C2 30.663 10.5066 38.9302 21 38.9302Z" stroke="#292D32" stroke-opacity="0.95" stroke-width="4" stroke-linecap="round" stroke-linejoin="round"/>
</svg>
