<svg width="41" height="34" viewBox="0 0 41 34" fill="none" xmlns="http://www.w3.org/2000/svg">
<path d="M21.5003 30.8683H2.70039C2.03765 30.8683 1.5004 30.43 1.5004 29.8893V2.47893C1.5004 1.93827 2.03765 1.49998 2.70039 1.49998H36.3002C36.963 1.49998 37.5002 1.93827 37.5002 2.47893V17.8157" stroke="white" stroke-opacity="0.9" stroke-width="3" stroke-linecap="round" stroke-linejoin="round"/>
<path d="M1.5004 22.7101L15.5003 17.8154L26.5003 21.8943" stroke="white" stroke-opacity="0.9" stroke-width="3" stroke-linecap="round" stroke-linejoin="round"/>
<path d="M27.5004 12.9211C25.2912 12.9211 23.5004 11.4601 23.5004 9.65794C23.5004 7.85576 25.2912 6.3948 27.5004 6.3948C29.7096 6.3948 31.5003 7.85576 31.5003 9.65794C31.5003 11.4601 29.7096 12.9211 27.5004 12.9211Z" stroke="white" stroke-opacity="0.9" stroke-width="3" stroke-linecap="round" stroke-linejoin="round"/>
<path d="M27.5001 27.6049H33.5M33.5 27.6049H39.5M33.5 27.6049V22.7102M33.5 27.6049V32.4996" stroke="white" stroke-opacity="0.9" stroke-width="3" stroke-linecap="round" stroke-linejoin="round"/>
</svg>
