<svg width="43" height="43" viewBox="0 0 43 43" fill="none" xmlns="http://www.w3.org/2000/svg">
<path d="M24.9284 7.49886C24.9337 6.50719 24.5361 5.55397 23.823 4.84889C23.1098 4.14381 22.1397 3.74463 21.1258 3.73917C19.0042 3.72774 17.2941 5.40117 17.283 7.45767C17.2718 9.53287 18.9639 11.2059 21.0855 11.2174C22.0994 11.2228 23.0738 10.8341 23.7945 10.1368C24.5151 9.43941 24.923 8.49053 24.9284 7.49886ZM13.4603 7.43708C13.471 5.45374 14.2867 3.55597 15.728 2.16127C17.1694 0.766557 19.1183 -0.0108457 21.146 7.77652e-05C23.1736 0.0110012 25.114 0.809356 26.5403 2.21951C27.9665 3.62967 28.7617 5.53611 28.7511 7.51945C28.7404 9.50279 27.9246 11.4006 26.4833 12.7953C25.0419 14.19 23.1908 15.1381 21.1631 15.1272C19.1354 15.1163 17.0973 14.1472 15.6711 12.737C14.2448 11.3269 13.4496 9.42042 13.4603 7.43708ZM32.5738 7.54005C32.5783 6.69875 32.4872 5.87563 32.3194 5.0895C38.2059 8.74824 42.0894 15.2193 42.0499 22.5479C41.9887 33.9148 32.5353 43.0623 20.9143 42.9997C9.29331 42.9371 -0.0609655 33.6882 0.000269575 22.3214C0.0397501 14.9928 3.99276 8.56392 9.91836 4.96882C9.74211 5.7531 9.64211 6.57519 9.63758 7.41649C9.62952 8.91212 9.92769 10.3346 10.4559 11.6275C7.55507 14.3415 5.75708 18.1271 5.73431 22.3523C5.71294 26.3189 7.30344 30.1318 10.1559 32.9522C13.0084 35.7725 16.8892 37.3692 20.9445 37.391C24.9999 37.4129 28.8976 35.8581 31.7803 33.0686C34.663 30.2792 36.2945 26.4837 36.3159 22.517C36.3386 18.2918 34.5815 14.4871 31.7101 11.742C32.2522 10.4549 32.5657 9.03568 32.5738 7.54005Z" fill="black" fill-opacity="0.9"/>
<path d="M25.1284 7.49994C25.1341 6.45376 24.7145 5.44907 23.9636 4.70662C23.2129 3.96433 22.1924 3.54485 21.1269 3.53911C18.8983 3.5271 17.0946 5.2861 17.0829 7.45659C17.0711 9.64643 18.8566 11.4054 21.0844 11.4174C22.1499 11.4232 23.1749 11.0147 23.9336 10.2805C24.6925 9.54623 25.1228 8.54611 25.1284 7.49994ZM13.6603 7.43816C13.6707 5.50932 14.464 3.66279 15.8672 2.30504C17.2705 0.947142 19.1688 0.189496 21.1449 0.200141C23.1209 0.210786 25.011 0.988841 26.3996 2.36178C27.788 3.73457 28.5614 5.58954 28.551 7.51838C28.5406 9.44721 27.7473 11.2937 26.3442 12.6515C24.9301 14.0198 23.1267 14.9377 21.1641 14.9271C19.1963 14.9165 17.2065 13.9738 15.8117 12.5948C14.4233 11.222 13.6499 9.36699 13.6603 7.43816ZM32.7738 7.54112C32.7776 6.84761 32.7174 6.1665 32.6038 5.50793C38.2153 9.17193 41.8881 15.4546 41.8499 22.5468C41.7892 33.799 32.4301 42.8616 20.9154 42.7996C9.40069 42.7376 0.139716 33.5747 0.200333 22.3225C0.23854 15.2302 3.97874 8.98749 9.62943 5.38416C9.50872 6.04147 9.44125 6.72189 9.43752 7.41541C9.42958 8.88947 9.71375 10.2937 10.2195 11.5756C7.33923 14.3182 5.55706 18.1167 5.53425 22.3512C5.51259 26.3724 7.12498 30.2367 10.0152 33.0944C12.9053 35.9519 16.8364 37.569 20.9434 37.5911C25.0505 37.6132 28.9987 36.0386 31.9195 33.2124C34.8403 30.386 36.4943 26.5393 36.5159 22.5181C36.5388 18.2837 34.7976 14.4661 31.9471 11.6926C32.4666 10.4162 32.7659 9.01519 32.7738 7.54112Z" stroke="black" stroke-opacity="0.8" stroke-width="0.4"/>
</svg>
