<svg width="38" height="38" viewBox="0 0 38 38" fill="none" xmlns="http://www.w3.org/2000/svg">
<g opacity="0.82">
<path d="M34.8952 20.2538C34.5852 19.9071 34.4142 19.4615 34.4142 19C34.4142 18.5385 34.5852 18.0929 34.8952 17.7462L37.3707 15.0105C37.6435 14.7117 37.8128 14.3356 37.8545 13.9363C37.8962 13.5369 37.8081 13.1349 37.6027 12.7878L33.7348 6.21474C33.5316 5.86808 33.2221 5.59329 32.8505 5.42955C32.479 5.26581 32.0642 5.22147 31.6655 5.30286L28.0297 6.02476C27.567 6.11867 27.0854 6.04298 26.6757 5.81199C26.266 5.58101 25.9565 5.21069 25.8056 4.77094L24.6259 1.29441C24.4962 0.917079 24.249 0.589347 23.9193 0.357535C23.5896 0.125723 23.1941 0.0015555 22.7887 0.00258357H15.0528C14.6311 -0.0190394 14.2138 0.095531 13.8645 0.328796C13.5153 0.562061 13.2534 0.901198 13.1189 1.29441L12.0359 4.77094C11.885 5.21069 11.5755 5.58101 11.1658 5.81199C10.7561 6.04298 10.2745 6.11867 9.81182 6.02476L6.07929 5.30286C5.7013 5.25039 5.31596 5.30898 4.97181 5.47126C4.62765 5.63353 4.34009 5.89222 4.14534 6.21474L0.277427 12.7878C0.0669361 13.131 -0.0277076 13.5308 0.00702711 13.93C0.0417619 14.3292 0.204096 14.7074 0.470823 15.0105L2.92694 17.7462C3.23699 18.0929 3.40799 18.5385 3.40799 19C3.40799 19.4615 3.23699 19.9071 2.92694 20.2538L0.470823 22.9895C0.204096 23.2926 0.0417619 23.6708 0.00702711 24.07C-0.0277076 24.4692 0.0669361 24.869 0.277427 25.2122L4.14534 31.7853C4.34859 32.1319 4.65806 32.4067 5.02964 32.5705C5.40122 32.7342 5.81593 32.7785 6.21467 32.6971L9.8505 31.9752C10.3131 31.8813 10.7948 31.957 11.2045 32.188C11.6142 32.419 11.9237 32.7893 12.0745 33.2291L13.2543 36.7056C13.3888 37.0988 13.6507 37.4379 13.9999 37.6712C14.3491 37.9045 14.7665 38.019 15.1882 37.9974H22.924C23.3295 37.9984 23.725 37.8743 24.0547 37.6425C24.3844 37.4107 24.6315 37.0829 24.7613 36.7056L25.941 33.2291C26.0918 32.7893 26.4013 32.419 26.8111 32.188C27.2208 31.957 27.7024 31.8813 28.165 31.9752L31.8009 32.6971C32.1996 32.7785 32.6143 32.7342 32.9859 32.5705C33.3575 32.4067 33.667 32.1319 33.8702 31.7853L37.7381 25.2122C37.9435 24.8651 38.0316 24.4631 37.9899 24.0637C37.9482 23.6644 37.7788 23.2883 37.5061 22.9895L34.8952 20.2538ZM32.0136 22.7995L33.5608 24.5093L31.0853 28.7267L28.8033 28.2707C27.4104 27.9911 25.9614 28.2235 24.7315 28.9239C23.5015 29.6243 22.5762 30.7439 22.1311 32.0702L21.3962 34.1979H16.4453L15.7491 32.0322C15.304 30.7059 14.3786 29.5863 13.1487 28.8859C11.9187 28.1855 10.4698 27.9531 9.07692 28.2327L6.79485 28.6887L4.28071 24.4903L5.82788 22.7805C6.77929 21.7356 7.30529 20.3829 7.30529 18.981C7.30529 17.5791 6.77929 16.2264 5.82788 15.1815L4.28071 13.4718L6.75617 9.29232L9.03824 9.74826C10.4311 10.0279 11.88 9.79552 13.11 9.09512C14.3399 8.39472 15.2653 7.2751 15.7104 5.94878L16.4453 3.80207H21.3962L22.1311 5.96777C22.5762 7.29409 23.5015 8.41372 24.7315 9.11412C25.9614 9.81452 27.4104 10.0469 28.8033 9.76726L31.0853 9.31132L33.5608 13.5287L32.0136 15.2385C31.0729 16.281 30.5534 17.6259 30.5534 19.019C30.5534 20.4121 31.0729 21.757 32.0136 22.7995ZM18.9207 11.401C17.3907 11.401 15.8951 11.8467 14.623 12.6817C13.3508 13.5167 12.3593 14.7035 11.7738 16.092C11.1883 17.4805 11.0351 19.0084 11.3336 20.4825C11.6321 21.9565 12.3688 23.3105 13.4507 24.3733C14.5326 25.436 15.911 26.1597 17.4116 26.453C18.9122 26.7462 20.4676 26.5957 21.8811 26.0205C23.2947 25.4454 24.5028 24.4714 25.3528 23.2218C26.2029 21.9721 26.6566 20.5029 26.6566 19C26.6566 16.9846 25.8415 15.0518 24.3908 13.6267C22.94 12.2016 20.9724 11.401 18.9207 11.401ZM18.9207 22.7995C18.1557 22.7995 17.4079 22.5766 16.7719 22.1592C16.1358 21.7417 15.64 21.1483 15.3473 20.454C15.0545 19.7597 14.9779 18.9958 15.1272 18.2588C15.2764 17.5217 15.6448 16.8447 16.1857 16.3134C16.7267 15.782 17.4159 15.4201 18.1662 15.2735C18.9165 15.1269 19.6942 15.2022 20.4009 15.4897C21.1077 15.7773 21.7118 16.2643 22.1368 16.8891C22.5618 17.5139 22.7887 18.2485 22.7887 19C22.7887 20.0077 22.3811 20.9741 21.6558 21.6866C20.9304 22.3992 19.9466 22.7995 18.9207 22.7995Z" fill="black" fill-opacity="0.9"/>
</g>
</svg>
