<svg width="46" height="44" viewBox="0 0 46 44" fill="none" xmlns="http://www.w3.org/2000/svg">
<path d="M42.8 11.4999C43.9282 11.4999 44.8581 12.3106 44.9852 13.355L45 13.5999V31.4499C45 35.3739 41.7786 38.5797 37.7225 38.7891L37.3 38.7999H10.713L11.3556 39.415C12.1487 40.172 12.2097 41.3632 11.5387 42.187L11.3556 42.3849C10.5626 43.1419 9.31466 43.2001 8.45162 42.5596L8.24437 42.3849L3.84437 38.1849L3.80533 38.1467C3.75715 38.0983 3.71135 38.0477 3.66813 37.9951L3.84437 38.1849C3.7665 38.1105 3.69569 38.032 3.63194 37.9501C3.59268 37.8993 3.55578 37.8471 3.52135 37.7933C3.50494 37.768 3.4893 37.7424 3.47428 37.7165C3.45035 37.675 3.42743 37.6321 3.40604 37.5884C3.38849 37.5527 3.37203 37.5164 3.3567 37.4797C3.33929 37.4383 3.32347 37.3967 3.309 37.3546C3.2984 37.3233 3.28821 37.291 3.27886 37.2585C3.26563 37.2133 3.25421 37.1677 3.24436 37.1216C3.23674 37.085 3.22998 37.0484 3.22424 37.0117C3.21782 36.9717 3.21265 36.9303 3.20875 36.8885C3.20417 36.8385 3.2014 36.7896 3.2 36.7406C3.2 36.727 3.2 36.7135 3.2 36.6999L3.2007 36.6468C3.20188 36.602 3.20456 36.5572 3.20873 36.5125L3.2 36.6999C3.2 36.5936 3.20827 36.4892 3.22424 36.3871C3.22998 36.3514 3.23674 36.3148 3.24453 36.2784C3.25421 36.2322 3.26563 36.1866 3.27859 36.1417C3.28822 36.1089 3.2984 36.0765 3.30942 36.0444C3.32347 36.0032 3.33929 35.9616 3.35643 35.9207C3.37203 35.8835 3.38849 35.8471 3.40608 35.8112C3.42743 35.7678 3.45035 35.7249 3.47473 35.683C3.4893 35.6575 3.50494 35.6319 3.52119 35.6064C3.55578 35.5528 3.59268 35.5006 3.63189 35.4501C3.64158 35.4374 3.65138 35.4251 3.66135 35.4128C3.72287 35.3382 3.78174 35.2748 3.84437 35.215L8.24437 31.015C9.10352 30.1949 10.4965 30.1949 11.3556 31.015C12.1487 31.772 12.2097 32.9632 11.5387 33.787L11.3556 33.9849L10.7108 34.5999H37.3C39.0153 34.5999 40.425 33.3507 40.5849 31.7533L40.6 31.4499V13.5999C40.6 12.4401 41.585 11.4999 42.8 11.4999ZM37.5484 1.44032L37.7556 1.61501L42.1556 5.81501C42.2183 5.87479 42.2771 5.93816 42.3319 6.00476L42.1556 5.81501C42.2237 5.87997 42.2864 5.94813 42.3436 6.01897C42.392 6.07909 42.4371 6.14166 42.4787 6.20655C42.4951 6.23185 42.5107 6.25751 42.5257 6.28341C42.5477 6.3216 42.5689 6.361 42.5889 6.40109C42.6083 6.43999 42.6265 6.47986 42.6433 6.52013C42.6607 6.56162 42.6765 6.60316 42.691 6.64529C42.7016 6.67655 42.7118 6.70887 42.7211 6.74135C42.7344 6.78662 42.7458 6.83217 42.7556 6.87827C42.7633 6.91485 42.77 6.95145 42.7758 6.98816C42.7825 7.03004 42.7878 7.07338 42.7918 7.1171C42.7953 7.15658 42.7976 7.19438 42.7989 7.2322C42.8 7.2533 42.8 7.27657 42.8 7.29994L42.7993 7.35309C42.7982 7.39507 42.7958 7.43703 42.792 7.47891L42.8 7.29994C42.8 7.40624 42.7917 7.5107 42.7758 7.61276C42.77 7.64843 42.7633 7.68503 42.7555 7.72146C42.7458 7.7677 42.7344 7.81326 42.7214 7.8582C42.7118 7.89101 42.7016 7.92333 42.6906 7.95544C42.6765 7.99671 42.6607 8.03825 42.6436 8.07916C42.628 8.11641 42.6115 8.15275 42.5939 8.1887C42.5726 8.23211 42.5497 8.27496 42.5253 8.31692C42.5107 8.34237 42.4951 8.36803 42.4788 8.39343C42.4509 8.43675 42.4214 8.47915 42.3905 8.52042C42.3736 8.54327 42.3564 8.56528 42.3386 8.58703C42.3268 8.60123 42.3218 8.60732 42.3167 8.61338L42.1556 8.78486L37.7556 12.9849C36.8965 13.805 35.5035 13.805 34.6444 12.9849C33.8513 12.2278 33.7903 11.0367 34.4614 10.2128L34.6444 10.015L35.2848 9.39994H8.7C6.98467 9.39994 5.57501 10.6492 5.41511 12.2466L5.4 12.5499V30.3999C5.4 31.5597 4.41503 32.4999 3.2 32.4999C2.07176 32.4999 1.14188 31.6893 1.0148 30.6448L1 30.3999V12.5499C1 8.62596 4.22141 5.42017 8.27752 5.21081L8.7 5.19994H35.287L34.6444 4.58486C33.8513 3.82785 33.7903 2.63666 34.4614 1.81285L34.6444 1.61501C35.4374 0.857998 36.6853 0.799766 37.5484 1.44032ZM23 13.5999C27.8601 13.5999 31.8 17.3607 31.8 21.9999C31.8 26.6391 27.8601 30.3999 23 30.3999C18.1399 30.3999 14.2 26.6391 14.2 21.9999C14.2 17.3607 18.1399 13.5999 23 13.5999Z" fill="white"/>
<path d="M3.84437 38.1849L8.24437 42.3849L8.45162 42.5596C9.31466 43.2001 10.5626 43.1419 11.3556 42.3849L11.5387 42.187C12.2097 41.3632 12.1487 40.172 11.3556 39.415L10.713 38.7999H37.3L37.7225 38.7891C41.7786 38.5797 45 35.3739 45 31.4499V13.5999L44.9852 13.355C44.8581 12.3106 43.9282 11.4999 42.8 11.4999C41.585 11.4999 40.6 12.4401 40.6 13.5999V31.4499L40.5849 31.7533C40.425 33.3507 39.0153 34.5999 37.3 34.5999H10.7108L11.3556 33.9849L11.5387 33.787C12.2097 32.9632 12.1487 31.772 11.3556 31.015C10.4965 30.1949 9.10352 30.1949 8.24437 31.015L3.84437 35.215C3.78174 35.2748 3.72287 35.3382 3.66135 35.4128C3.65138 35.4251 3.64158 35.4374 3.63189 35.4501C3.59268 35.5006 3.55578 35.5528 3.52119 35.6065C3.50494 35.6319 3.4893 35.6575 3.47473 35.683C3.45035 35.7249 3.42743 35.7678 3.40608 35.8112C3.38849 35.8471 3.37203 35.8835 3.35643 35.9207C3.33929 35.9616 3.32347 36.0032 3.30942 36.0444C3.2984 36.0765 3.28822 36.1089 3.27859 36.1417C3.26563 36.1866 3.25421 36.2322 3.24453 36.2784C3.23674 36.3148 3.22998 36.3514 3.22424 36.3871C3.20827 36.4892 3.2 36.5936 3.2 36.6999M3.84437 38.1849L3.80533 38.1467C3.75715 38.0983 3.71135 38.0477 3.66813 37.9951L3.84437 38.1849ZM3.84437 38.1849C3.7665 38.1105 3.69569 38.032 3.63194 37.9501C3.59268 37.8993 3.55578 37.8471 3.52135 37.7933C3.50494 37.768 3.4893 37.7424 3.47428 37.7165C3.45035 37.675 3.42743 37.6321 3.40604 37.5884C3.38849 37.5527 3.37203 37.5164 3.3567 37.4797C3.33929 37.4383 3.32347 37.3967 3.309 37.3546C3.2984 37.3233 3.28821 37.291 3.27886 37.2585C3.26563 37.2133 3.25421 37.1677 3.24436 37.1216C3.23674 37.085 3.22998 37.0484 3.22424 37.0117C3.21782 36.9717 3.21265 36.9303 3.20875 36.8885C3.20417 36.8385 3.2014 36.7896 3.2 36.7406C3.2 36.727 3.2 36.7135 3.2 36.6999M3.2 36.6999L3.2007 36.6468C3.20188 36.602 3.20456 36.5572 3.20873 36.5125L3.2 36.6999ZM42.1556 5.81501L37.7556 1.61501L37.5484 1.44032C36.6853 0.799766 35.4374 0.857998 34.6444 1.61501L34.4614 1.81285C33.7903 2.63666 33.8513 3.82785 34.6444 4.58486L35.287 5.19994H8.7L8.27752 5.21081C4.22141 5.42017 1 8.62596 1 12.5499V30.3999L1.0148 30.6448C1.14188 31.6893 2.07176 32.4999 3.2 32.4999C4.41503 32.4999 5.4 31.5597 5.4 30.3999V12.5499L5.41511 12.2466C5.57501 10.6492 6.98467 9.39994 8.7 9.39994H35.2848L34.6444 10.015L34.4614 10.2129C33.7903 11.0367 33.8513 12.2278 34.6444 12.9849C35.5035 13.805 36.8965 13.805 37.7556 12.9849L42.1556 8.78486L42.3167 8.61338C42.3218 8.60732 42.3268 8.60123 42.3386 8.58703C42.3564 8.56528 42.3736 8.54327 42.3905 8.52042C42.4214 8.47915 42.4509 8.43675 42.4788 8.39343C42.4951 8.36803 42.5107 8.34237 42.5253 8.31692C42.5497 8.27496 42.5726 8.23211 42.5939 8.1887C42.6115 8.15275 42.628 8.11641 42.6436 8.07916C42.6607 8.03825 42.6765 7.99671 42.6906 7.95544C42.7016 7.92333 42.7118 7.89101 42.7214 7.8582C42.7344 7.81326 42.7458 7.7677 42.7555 7.72146C42.7633 7.68503 42.77 7.64843 42.7758 7.61276C42.7917 7.5107 42.8 7.40624 42.8 7.29994M42.1556 5.81501C42.2183 5.87479 42.2771 5.93816 42.3319 6.00476L42.1556 5.81501ZM42.1556 5.81501C42.2237 5.87997 42.2864 5.94813 42.3436 6.01897C42.392 6.07909 42.4371 6.14166 42.4787 6.20655C42.4951 6.23185 42.5107 6.25751 42.5257 6.28341C42.5477 6.3216 42.5689 6.361 42.5889 6.40109C42.6083 6.43999 42.6265 6.47986 42.6433 6.52013C42.6607 6.56162 42.6765 6.60316 42.691 6.64529C42.7016 6.67655 42.7118 6.70887 42.7211 6.74135C42.7344 6.78662 42.7458 6.83217 42.7556 6.87827C42.7633 6.91485 42.77 6.95145 42.7758 6.98816C42.7825 7.03004 42.7878 7.07338 42.7918 7.1171C42.7953 7.15658 42.7976 7.19438 42.7989 7.2322C42.8 7.2533 42.8 7.27657 42.8 7.29994M42.8 7.29994L42.7993 7.35309C42.7982 7.39507 42.7958 7.43703 42.792 7.47891L42.8 7.29994ZM23 13.5999C27.8601 13.5999 31.8 17.3607 31.8 21.9999C31.8 26.6391 27.8601 30.3999 23 30.3999C18.1399 30.3999 14.2 26.6391 14.2 21.9999C14.2 17.3607 18.1399 13.5999 23 13.5999Z" stroke="black" stroke-width="2"/>
</svg>
