<svg width="28" height="29" viewBox="0 0 28 29" fill="none" xmlns="http://www.w3.org/2000/svg">
<path d="M25.2466 15.7083C25.0782 15.5641 24.8741 15.4718 24.6575 15.4419C24.441 15.412 24.2206 15.4457 24.0216 15.5391C22.788 16.1238 21.4467 16.4248 20.09 16.4212C17.5803 16.4181 15.1736 15.3874 13.3946 13.554C11.6157 11.7205 10.6087 9.23296 10.5933 6.63371C10.5986 5.81909 10.6965 5.00795 10.885 4.21704C10.925 4.00624 10.91 3.7882 10.8415 3.58539C10.7731 3.38259 10.6537 3.20235 10.4956 3.06324C10.3375 2.92414 10.1465 2.8312 9.94219 2.79401C9.73789 2.75681 9.52771 2.7767 9.33331 2.85163C7.50435 3.70339 5.91447 5.02271 4.71303 6.68565C3.51158 8.34858 2.738 10.3005 2.46497 12.3582C2.19193 14.4158 2.4284 16.5115 3.15216 18.4485C3.87591 20.3855 5.06321 22.1001 6.60249 23.4313C8.14178 24.7625 9.98253 25.6666 11.9518 26.0586C13.9211 26.4507 15.9543 26.3178 17.8604 25.6725C19.7665 25.0272 21.4829 23.8906 22.8484 22.3695C24.2139 20.8485 25.1837 18.9929 25.6666 16.977C25.7255 16.7462 25.717 16.5026 25.6422 16.2768C25.5675 16.051 25.4298 15.8532 25.2466 15.7083ZM14.1633 23.792C12.2054 23.7777 10.2995 23.137 8.7068 21.9575C7.11406 20.778 5.91225 19.1174 5.26594 17.2032C4.61963 15.2889 4.5604 13.2145 5.09637 11.264C5.63234 9.31358 6.73731 7.58237 8.25997 6.30746V6.63371C8.26306 9.88229 9.51043 12.9969 11.7283 15.294C13.9462 17.5911 16.9534 18.883 20.09 18.8862C20.9135 18.8893 21.7349 18.8002 22.54 18.6204C21.7349 20.1979 20.5292 21.5178 19.053 22.4377C17.5768 23.3576 15.8861 23.8426 14.1633 23.8404V23.792Z" fill="black"/>
</svg>
