<svg width="27" height="28" viewBox="0 0 27 28" fill="none" xmlns="http://www.w3.org/2000/svg">
<path d="M13.3339 18.0742C13.3536 18.1004 13.3788 18.1215 13.4076 18.1361C13.4364 18.1506 13.468 18.1581 13.5 18.1581C13.532 18.1581 13.5636 18.1506 13.5924 18.1361C13.6212 18.1215 13.6464 18.1004 13.6661 18.0742L16.6192 14.1996C16.7273 14.0574 16.6298 13.8469 16.4531 13.8469H14.4993V4.59375C14.4993 4.47344 14.4044 4.375 14.2884 4.375H12.7063C12.5903 4.375 12.4954 4.47344 12.4954 4.59375V13.8441H10.5469C10.3702 13.8441 10.2727 14.0547 10.3808 14.1969L13.3339 18.0742ZM23.1504 17.1172H21.5684C21.4523 17.1172 21.3574 17.2156 21.3574 17.3359V21.5469H5.64258V17.3359C5.64258 17.2156 5.54766 17.1172 5.43164 17.1172H3.84961C3.73359 17.1172 3.63867 17.2156 3.63867 17.3359V22.75C3.63867 23.234 4.01572 23.625 4.48242 23.625H22.5176C22.9843 23.625 23.3613 23.234 23.3613 22.75V17.3359C23.3613 17.2156 23.2664 17.1172 23.1504 17.1172Z" fill="black"/>
</svg>
