<svg width="40" height="37" viewBox="0 0 40 37" fill="none" xmlns="http://www.w3.org/2000/svg">
<path d="M39.9299 1.68182V10.0909C39.9299 10.537 39.7681 10.9647 39.4801 11.2801C39.1921 11.5955 38.8015 11.7727 38.3942 11.7727C37.9868 11.7727 37.5962 11.5955 37.3082 11.2801C37.0202 10.9647 36.8584 10.537 36.8584 10.0909V3.36364H30.7153C30.308 3.36364 29.9174 3.18644 29.6294 2.87104C29.3414 2.55564 29.1796 2.12786 29.1796 1.68182C29.1796 1.23577 29.3414 0.807995 29.6294 0.492593C29.9174 0.177191 30.308 0 30.7153 0H38.3942C38.8015 4.46038e-06 39.1921 0.177197 39.4801 0.492598C39.7681 0.807999 39.9299 1.23577 39.9299 1.68182ZM9.2146 33.6364H3.07153V26.9091C3.07153 26.463 2.90973 26.0353 2.62172 25.7199C2.3337 25.4045 1.94308 25.2273 1.53577 25.2273C1.12846 25.2273 0.737828 25.4045 0.449815 25.7199C0.161803 26.0353 0 26.463 0 26.9091V35.3182C4.07303e-06 35.7642 0.161809 36.192 0.44982 36.5074C0.737831 36.8228 1.12846 37 1.53577 37H9.2146C9.62191 37 10.0125 36.8228 10.3005 36.5074C10.5886 36.192 10.7504 35.7642 10.7504 35.3182C10.7504 34.8721 10.5886 34.4444 10.3005 34.129C10.0125 33.8136 9.62191 33.6364 9.2146 33.6364ZM38.3942 25.2273C37.9869 25.2273 37.5962 25.4045 37.3082 25.7199C37.0202 26.0353 36.8584 26.463 36.8584 26.9091V33.6364H30.7153C30.308 33.6364 29.9174 33.8136 29.6294 34.129C29.3414 34.4444 29.1796 34.8721 29.1796 35.3182C29.1796 35.7642 29.3414 36.192 29.6294 36.5074C29.9174 36.8228 30.308 37 30.7153 37H38.3942C38.8015 37 39.1921 36.8228 39.4801 36.5074C39.7681 36.192 39.9299 35.7642 39.9299 35.3182V26.9091C39.9299 26.463 39.7681 26.0353 39.4801 25.7199C39.1921 25.4045 38.8015 25.2273 38.3942 25.2273ZM1.53577 11.7727C1.94308 11.7727 2.3337 11.5955 2.62171 11.2801C2.90972 10.9647 3.07153 10.537 3.07153 10.0909V3.36364H9.2146C9.62191 3.36364 10.0125 3.18644 10.3005 2.87104C10.5886 2.55564 10.7504 2.12786 10.7504 1.68182C10.7504 1.23577 10.5886 0.807995 10.3005 0.492593C10.0125 0.177191 9.62191 0 9.2146 0H1.53577C1.12846 4.46038e-06 0.737831 0.177197 0.44982 0.492598C0.161809 0.807999 4.07303e-06 1.23577 0 1.68182V10.0909C4.07303e-06 10.537 0.161809 10.9647 0.44982 11.2801C0.737831 11.5955 1.12846 11.7727 1.53577 11.7727ZM10.7504 8.40909C10.3431 8.40909 9.95243 8.58629 9.66442 8.90169C9.37641 9.21709 9.2146 9.64486 9.2146 10.0909V26.9091C9.2146 27.3551 9.3764 27.7829 9.66441 28.0983C9.95243 28.4137 10.3431 28.5909 10.7504 28.5909C11.1577 28.5909 11.5483 28.4137 11.8363 28.0983C12.1243 27.7829 12.2861 27.3551 12.2861 26.9091V10.0909C12.2861 9.64486 12.1243 9.21709 11.8363 8.90169C11.5483 8.58629 11.1577 8.40909 10.7504 8.40909ZM30.7153 26.9091V10.0909C30.7153 9.64486 30.5535 9.21709 30.2655 8.90168C29.9775 8.58628 29.5869 8.40909 29.1796 8.40909C28.7723 8.40909 28.3816 8.58628 28.0936 8.90168C27.8056 9.21709 27.6438 9.64486 27.6438 10.0909V26.9091C27.6438 27.3551 27.8056 27.7829 28.0936 28.0983C28.3816 28.4137 28.7723 28.5909 29.1796 28.5909C29.5869 28.5909 29.9775 28.4137 30.2655 28.0983C30.5535 27.7829 30.7153 27.3551 30.7153 26.9091ZM23.0365 8.40909C22.6292 8.40909 22.2386 8.58629 21.9506 8.90169C21.6625 9.21709 21.5007 9.64486 21.5007 10.0909V26.9091C21.5007 27.3551 21.6625 27.7829 21.9505 28.0983C22.2386 28.4137 22.6292 28.5909 23.0365 28.5909C23.4438 28.5909 23.8344 28.4137 24.1224 28.0983C24.4105 27.7829 24.5723 27.3551 24.5723 26.9091V10.0909C24.5723 9.64486 24.4105 9.21709 24.1224 8.90169C23.8344 8.58629 23.4438 8.40909 23.0365 8.40909ZM16.8934 8.40909C16.4861 8.40909 16.0955 8.58629 15.8075 8.90169C15.5195 9.21709 15.3577 9.64486 15.3577 10.0909V26.9091C15.3577 27.3551 15.5195 27.7829 15.8075 28.0983C16.0955 28.4137 16.4861 28.5909 16.8934 28.5909C17.3007 28.5909 17.6914 28.4137 17.9794 28.0983C18.2674 27.7829 18.4292 27.3551 18.4292 26.9091V10.0909C18.4292 9.64486 18.2674 9.21709 17.9794 8.90169C17.6914 8.58629 17.3007 8.40909 16.8934 8.40909Z" fill="white" fill-opacity="0.78"/>
</svg>
