<svg width="24" height="28" viewBox="0 0 24 28" fill="none" xmlns="http://www.w3.org/2000/svg">
<path d="M12.9027 0C13.4761 0 13.8923 0.611527 13.7872 1.24576L13.7566 1.3818L11.7512 8.39852H17.1033C17.8523 8.39852 18.2557 9.38805 17.8356 10.0602L17.7528 10.1752L3.35597 27.6721C2.74484 28.4149 1.70485 27.7939 1.81143 26.8248L1.83322 26.6906L3.954 16.797H0.900695C0.342526 16.797 -0.070804 16.2155 0.0101432 15.5927L0.0351818 15.4588L3.63577 0.761409C3.73391 0.360798 4.02389 0.0707772 4.36939 0.011274L4.50128 0H12.9027ZM19.3759 13.1199L19.4365 13.267L23.9368 26.5588C24.1194 27.0981 23.8926 27.7079 23.4302 27.9208C23.0064 28.116 22.5317 27.91 22.3149 27.4589L22.2624 27.3299L21.0646 23.7951H16.1318L14.9362 27.3299C14.7689 27.8243 14.3156 28.0878 13.885 27.9642L13.7684 27.9208C13.3445 27.7256 13.1186 27.1969 13.2246 26.6948L13.2618 26.5588L17.7621 13.267C18.0443 12.4334 19.0129 12.3844 19.3759 13.1199ZM18.5982 16.5094L16.8424 21.6955H20.3541L18.5982 16.5094Z" fill="white" fill-opacity="0.7"/>
</svg>
