<svg width="42" height="41" viewBox="0 0 42 41" fill="none" xmlns="http://www.w3.org/2000/svg">
<path d="M21.228 21.9053C21.095 21.8869 20.924 21.8869 20.772 21.9053C17.428 21.7946 14.7679 19.1356 14.7679 15.8672C14.7679 12.525 17.542 9.81067 21 9.81067C24.439 9.81067 27.232 12.525 27.232 15.8672C27.213 19.1356 24.572 21.7946 21.228 21.9053Z" stroke="#085B10" stroke-opacity="0.9" stroke-width="4" stroke-linecap="round" stroke-linejoin="round"/>
<path d="M33.806 34.0926C30.424 37.1024 25.94 38.9304 21 38.9304C16.06 38.9304 11.576 37.1024 8.19403 34.0926C8.38403 32.3569 9.52403 30.6581 11.557 29.3286C16.763 25.9679 25.275 25.9679 30.443 29.3286C32.476 30.6581 33.616 32.3569 33.806 34.0926Z" stroke="#085B10" stroke-opacity="0.9" stroke-width="4" stroke-linecap="round" stroke-linejoin="round"/>
<path d="M21 38.9302C31.4933 38.9302 40 30.663 40 20.4651C40 10.2671 31.4933 2 21 2C10.5066 2 2 10.2671 2 20.4651C2 30.663 10.5066 38.9302 21 38.9302Z" stroke="#085B10" stroke-opacity="0.9" stroke-width="4" stroke-linecap="round" stroke-linejoin="round"/>
</svg>
