<svg width="21" height="23" viewBox="0 0 21 23" fill="none" xmlns="http://www.w3.org/2000/svg">
<path fill-rule="evenodd" clip-rule="evenodd" d="M5.57812 3.59375C3.8249 3.59375 1.96875 5.2673 1.96875 7.90625C1.96875 10.9964 4.04304 13.8629 6.38492 16.074C7.52762 17.153 8.67513 18.0202 9.5392 18.6185C9.92784 18.8876 10.2571 19.1008 10.5 19.253C10.7429 19.1008 11.0722 18.8876 11.4608 18.6185C12.3249 18.0202 13.4724 17.153 14.6151 16.074C16.957 13.8629 19.0312 10.9964 19.0312 7.90625C19.0312 5.2673 17.1751 3.59375 15.4219 3.59375C13.6195 3.59375 11.9978 5.01085 11.4465 7.12431C11.3258 7.58715 10.9395 7.90625 10.5 7.90625C10.0605 7.90625 9.67424 7.58715 9.5535 7.12431C9.00216 5.01085 7.38044 3.59375 5.57812 3.59375ZM10.5 20.4844C10.0478 21.442 10.0475 21.4419 10.0472 21.4416L10.0442 21.4399L10.0371 21.4359L10.0128 21.4219C9.99223 21.41 9.96285 21.3929 9.92526 21.3706C9.8501 21.3262 9.74208 21.2612 9.60592 21.1768C9.33371 21.0079 8.94825 20.7604 8.48718 20.4411C7.56706 19.804 6.33566 18.8744 5.09946 17.7073C2.68352 15.4261 0 12.0036 0 7.90625C0 4.07645 2.7376 1.4375 5.57812 1.4375C7.60904 1.4375 9.38817 2.58967 10.5 4.34118C11.6118 2.58967 13.3909 1.4375 15.4219 1.4375C18.2624 1.4375 21 4.07645 21 7.90625C21 12.0036 18.3165 15.4261 15.9005 17.7073C14.6643 18.8744 13.4329 19.804 12.5128 20.4411C12.0518 20.7604 11.6663 21.0079 11.3941 21.1768C11.2579 21.2612 11.1499 21.3262 11.0747 21.3706C11.0372 21.3929 11.0078 21.41 10.9872 21.4219L10.9629 21.4359L10.9558 21.4399L10.9528 21.4416C10.9525 21.4419 10.9522 21.442 10.5 20.4844ZM10.5 20.4844L10.9528 21.4416C10.6692 21.6023 10.3308 21.6023 10.0472 21.4416L10.5 20.4844Z" fill="#24292E"/>
</svg>
